<svg width="22" height="20" viewBox="0 0 22 20" fill="none" xmlns="http://www.w3.org/2000/svg">
<path fill-rule="evenodd" clip-rule="evenodd" d="M0.5 9.0498C0.5 6.97874 2.17893 5.2998 4.25 5.2998H17.9667C19.4578 5.2998 20.6667 6.50864 20.6667 7.9998V9.20221C21.4103 9.24535 22 9.86204 22 10.6165V14.4831C22 15.2376 21.4103 15.8543 20.6667 15.8974V17.0998C20.6667 18.591 19.4578 19.7998 17.9667 19.7998H4.25C2.17893 19.7998 0.5 18.1209 0.5 16.0498V9.0498ZM4.25 6.7998C3.00736 6.7998 2 7.80716 2 9.0498V16.0498C2 17.2924 3.00736 18.2998 4.25 18.2998H17.9667C18.6294 18.2998 19.1667 17.7625 19.1667 17.0998V15.8165C19.1667 15.062 19.7564 14.4453 20.5 14.4022V10.6974C19.7564 10.6543 19.1667 10.0376 19.1667 9.28314V7.9998C19.1667 7.33706 18.6294 6.7998 17.9667 6.7998H4.25Z" fill="#212129"/>
<path fill-rule="evenodd" clip-rule="evenodd" d="M14.5 11.0498C14.5 10.0833 15.2835 9.2998 16.25 9.2998H20.25C21.2165 9.2998 22 10.0833 22 11.0498V14.0498C22 15.0163 21.2165 15.7998 20.25 15.7998H16.25C15.2835 15.7998 14.5 15.0163 14.5 14.0498V11.0498ZM16.25 10.7998C16.1119 10.7998 16 10.9117 16 11.0498V14.0498C16 14.1879 16.1119 14.2998 16.25 14.2998H20.25C20.3881 14.2998 20.5 14.1879 20.5 14.0498V11.0498C20.5 10.9117 20.3881 10.7998 20.25 10.7998H16.25Z" fill="#212129"/>
<path fill-rule="evenodd" clip-rule="evenodd" d="M13.0946 1.83106C13.0261 1.70561 12.8667 1.66294 12.7447 1.73746L6.91556 5.29973H14.9866L13.0946 1.83106ZM11.9626 0.457532C12.8161 -0.0640734 13.9324 0.234627 14.4114 1.11278L16.8277 5.54271C17.1367 6.10913 16.7267 6.79973 16.0815 6.79973H4.6054C3.74695 6.79973 3.42965 5.67209 4.16216 5.22444L11.9626 0.457532Z" fill="#212129"/>
<path fill-rule="evenodd" clip-rule="evenodd" d="M8.25 15.7998C7.83579 15.7998 7.5 15.464 7.5 15.0498L7.5 10.0498C7.5 9.63559 7.83579 9.2998 8.25 9.2998C8.66421 9.2998 9 9.63559 9 10.0498L9 15.0498C9 15.464 8.66421 15.7998 8.25 15.7998Z" fill="#212129"/>
</svg>
