<svg width="21" height="18" viewBox="0 0 21 18" fill="none" xmlns="http://www.w3.org/2000/svg">
<path fill-rule="evenodd" clip-rule="evenodd" d="M5 9.25C5 7.81609 5.42521 6.41438 6.22185 5.22212C7.01849 4.02986 8.15078 3.10061 9.47554 2.55188C10.8003 2.00314 12.258 1.85957 13.6644 2.13931C15.0708 2.41905 16.3626 3.10955 17.3765 4.12348C18.3905 5.13741 19.0809 6.42923 19.3607 7.8356C19.6404 9.24196 19.4969 10.6997 18.9481 12.0245C18.3994 13.3492 17.4701 14.4815 16.2779 15.2782C15.0856 16.0748 13.6839 16.5 12.25 16.5C11.8358 16.5 11.5 16.8358 11.5 17.25C11.5 17.6642 11.8358 18 12.25 18C13.9806 18 15.6723 17.4868 17.1112 16.5254C18.5502 15.5639 19.6717 14.1973 20.3339 12.5985C20.9962 10.9996 21.1695 9.24029 20.8319 7.54296C20.4942 5.84563 19.6609 4.28653 18.4372 3.06282C17.2135 1.83911 15.6544 1.00575 13.957 0.66813C12.2597 0.33051 10.5004 0.50379 8.90152 1.16606C7.30267 1.82832 5.9361 2.94983 4.97464 4.38876C4.01318 5.8277 3.5 7.51942 3.5 9.25C3.5 9.66422 3.83579 10 4.25 10C4.66422 10 5 9.66422 5 9.25Z" fill="#FDDD82"/>
<path fill-rule="evenodd" clip-rule="evenodd" d="M0.71967 6.71967C0.426777 7.01256 0.426777 7.48744 0.71967 7.78033L3.36612 10.4268C3.85427 10.9149 4.64573 10.9149 5.13388 10.4268L7.78033 7.78033C8.07322 7.48743 8.07322 7.01256 7.78033 6.71967C7.48744 6.42677 7.01256 6.42678 6.71967 6.71967L4.25 9.18934L1.78033 6.71967C1.48744 6.42678 1.01256 6.42678 0.71967 6.71967Z" fill="#FDDD82"/>
<path fill-rule="evenodd" clip-rule="evenodd" d="M11.75 4.5C12.1642 4.5 12.5 4.83579 12.5 5.25V9.88953L14.7185 11.6643C15.042 11.9231 15.0944 12.3951 14.8357 12.7185C14.5769 13.042 14.1049 13.0944 13.7815 12.8357L11.319 10.8657C11.1174 10.7044 11 10.4602 11 10.2019V5.25C11 4.83579 11.3358 4.5 11.75 4.5Z" fill="#FDDD82"/>
</svg>
