<svg width="500" height="138" viewBox="0 0 500 138" fill="none" xmlns="http://www.w3.org/2000/svg">
<path fill-rule="evenodd" clip-rule="evenodd" d="M224.155 12.6703L223.8 13.3371C214.563 28.8198 207.945 45.7905 204.223 63.5332C201.081 77.4488 199.494 91.6858 199.492 105.969V108.394H24.7221C24.9517 93.2814 23.3827 78.1962 20.0497 63.4725C16.2562 45.5238 9.4737 28.3793 0 12.7915C1.29203 12.8838 2.57644 13.0661 3.84434 13.3371C13.2884 14.9549 22.2735 18.6688 30.1706 24.2188C38.0678 29.7689 44.6861 37.0209 49.5624 45.4674C45.9634 48.8757 43.6936 53.5072 43.1749 58.5014C43.0577 59.8324 43.0577 61.1716 43.1749 62.5026C43.1997 67.2801 45.0101 71.8662 48.2336 75.3169C51.4572 78.7677 55.8485 80.8207 60.504 81.0533H62.2783C66.5291 80.3593 70.4078 78.1592 73.2392 74.8361C76.0706 71.5129 77.6753 67.2772 77.774 62.8663C77.8919 61.5353 77.8919 60.1961 77.774 58.8652C77.4973 55.9719 76.6142 53.174 75.1851 50.6629C73.756 48.1518 71.8147 45.9866 69.4939 44.3156C78.1071 30.1749 89.1245 17.7321 102.023 7.57791C105.039 4.72861 108.47 2.30368 112.373 0C115.883 2.22341 119.278 4.63135 122.546 7.21417C135.472 17.3551 146.511 29.7997 155.134 43.9519C152.813 45.6229 150.872 47.788 149.443 50.2992C148.014 52.8103 147.131 55.6082 146.854 58.5014C146.736 59.8324 146.736 61.1716 146.854 62.5026C146.879 67.2801 148.689 71.8662 151.913 75.3169C155.136 78.7677 159.527 80.8207 164.183 81.0533H165.957C170.208 80.3593 174.087 78.1592 176.918 74.8361C179.75 71.5129 181.354 67.2772 181.453 62.8663C181.6 61.5368 181.6 60.1946 181.453 58.8652C180.894 53.6728 178.444 48.888 174.592 45.4674C187.722 17.6414 224.096 12.6703 224.096 12.6703H224.155ZM24.9586 136.827H199.196V114.457H24.9586V136.827Z" fill="#E8C76F"/>
<path fill-rule="evenodd" clip-rule="evenodd" d="M83.3927 108.516H24.7221C24.9517 93.4027 23.3827 78.3174 20.0497 63.5938C16.2691 45.603 9.48622 28.4164 0 12.7915C1.29203 12.8838 2.57644 13.0661 3.84434 13.3371C13.2884 14.9549 22.2735 18.6688 30.1706 24.2188C38.0678 29.7689 44.6861 37.0209 49.5624 45.4674C45.9634 48.8757 43.6936 53.5072 43.1749 58.5014C43.0577 59.8324 43.0577 61.1716 43.1749 62.5026C43.1997 67.2801 45.0101 71.8662 48.2336 75.3169C51.4572 78.7677 55.8485 80.8207 60.504 81.0533H62.2783C66.5291 80.3593 70.4078 78.1592 73.2392 74.8361C76.0706 71.5129 77.6753 67.2772 77.774 62.8663C77.8919 61.5353 77.8919 60.1961 77.774 58.8652C77.4973 55.9719 76.6142 53.174 75.1851 50.6629C73.756 48.1518 71.8147 45.9866 69.4939 44.3156C78.1071 30.1749 89.1245 17.7321 102.023 7.57791C105.039 4.72861 108.47 2.30368 112.373 0L83.3927 108.516ZM81.7958 114.578L75.8814 136.948H24.9587L24.9586 114.457L81.7958 114.578Z" fill="#F2DF3A"/>
<path fill-rule="evenodd" clip-rule="evenodd" d="M166.076 50.0133L160.043 76.8694L173.646 70.6858L161.049 78.7487L186.362 88.5696L159.925 82.5073L165.957 96.2688L158.032 83.5379L148.333 109.182L154.365 82.3861L140.762 88.509L153.36 80.5067L128.046 70.6252L154.484 76.7481L148.451 62.926L156.376 75.7175L166.076 50.0133Z" fill="white"/>
<path d="M305.18 12.4124L300.463 28.2175L297.153 41.7884L283.913 14.2329H277.459L264.881 42.2849L261.405 28.2175L256.523 12.4124H240.718V13.3226L259.254 70.9162H266.205L281.1 40.4644L295.581 70.9162H302.532L321.15 13.3226V12.4124H305.18Z" fill="#E8C76F"/>
<path d="M361.717 12.4124L355.511 23.5008L350.959 33.1825L346.243 23.4181L340.036 12.4124H323.073V13.3226L343.264 47.4154V70.3369H358.407V47.4154L378.432 13.3226V12.4124H361.717Z" fill="#E8C76F"/>
<path d="M420.984 12.4124V30.5345L421.232 40.7954L391.939 12.1642H385.816V70.3369H400.71V51.3873L400.545 40.9609L429.755 70.5024H435.879V12.4124H420.984Z" fill="#E8C76F"/>
<path d="M485.105 12.4124V30.5345L485.353 40.7954L456.06 12.1642H449.937V70.3369H464.832V51.3873L464.666 40.9609L493.877 70.5024H500V12.4124H485.105Z" fill="#E8C76F"/>
<path d="M283.499 115.435C289.374 112.043 292.933 106.085 292.933 99.051C292.933 86.8041 283.83 78.6119 270.839 78.6119H246.179V136.536H261.322V118.663H269.432L279.196 136.536H296.16V136.123L283.499 115.435ZM261.322 91.6863H270.094C274.811 91.6863 277.624 94.3343 277.624 98.72C277.624 103.188 274.811 105.836 270.094 105.836H261.322V91.6863Z" fill="#E8C76F"/>
<path d="M341.871 137.447C356.601 137.447 365.951 128.179 365.951 114.442V78.6119H350.808V114.36C350.808 120.069 347.664 123.214 341.871 123.214C336.079 123.214 332.934 120.069 332.934 114.36V78.6119H317.791V114.442C317.791 128.179 327.142 137.447 341.871 137.447Z" fill="#E8C76F"/>
<path d="M413.758 137.447C427.825 137.447 437.424 130.247 437.424 119.49C437.424 109.146 431.135 102.526 414.337 100.871C407.634 100.209 405.483 98.72 405.483 95.8237C405.483 92.762 408.214 90.8588 413.261 90.8588C418.226 90.8588 421.205 93.0103 421.205 96.6512H435.769C435.769 85.3146 426.584 77.7016 413.096 77.7016C399.608 77.7016 390.422 84.9008 390.422 95.3273C390.422 105.092 395.967 112.208 411.772 113.946C418.557 114.691 422.115 115.766 422.115 119.076C422.115 122.304 418.971 124.207 413.592 124.207C407.8 124.207 404.655 121.89 404.655 117.918H389.843C389.843 130.165 398.78 137.447 413.758 137.447Z" fill="#E8C76F"/>
<path d="M499.282 78.6119H456.169V92.1828H470.154V136.536H485.297V92.1828H499.282V78.6119Z" fill="#E8C76F"/>
</svg>
